PathFileType	4	(X/Y/Z)	C:\Users\dbl\Desktop\20210112\20210112\bx_n_5_1802.trc
DataRate	CameraRate	NumFrames	NumMarkers	Units	OrigDataRate	OrigDataStartFrame	OrigNumFrames
50.00	50.00	       4	43	mm	50.00	327	       523
Frame#	Time	Top.Head			R.Acromium			L.Acromium			Sternum			R.ASIS			L.ASIS			V.Sacral			R.Thigh.Upper			R.Thigh.Front			R.Thigh.Rear			R.Knee.Lat			R.Knee.Med			R.Shank.Upper			R.Shank.Front			R.Shank.Rear			R.Ankle.Lat			R.Midfoot.Lat			R.Toe.Lat			R.Toe.Tip			R.Toe.Med			R.Ankle.Med			R.Midfoot.Sup			R.Heel			L.Thigh.Upper			L.Thigh.Front			L.Thigh.Rear			L.Knee.Lat			L.Knee.Med			L.Shank.Upper			L.Shank.Front			L.Shank.Rear			L.Ankle.Lat			L.Midfoot.Lat			L.Toe.Lat			L.Toe.Tip			L.Toe.Med			L.Ankle.Med			L.Midfoot.Sup			L.Heel			origin1 front left			origin2 front right			origin 3 back right			origin 4 back leftt			
		X1	Y1	Z1	X2	Y2	Z2	X3	Y3	Z3	X4	Y4	Z4	X5	Y5	Z5	X6	Y6	Z6	X7	Y7	Z7	X8	Y8	Z8	X9	Y9	Z9	X10	Y10	Z10	X11	Y11	Z11	X12	Y12	Z12	X13	Y13	Z13	X14	Y14	Z14	X15	Y15	Z15	X16	Y16	Z16	X17	Y17	Z17	X18	Y18	Z18	X19	Y19	Z19	X20	Y20	Z20	X21	Y21	Z21	X22	Y22	Z22	X23	Y23	Z23	X24	Y24	Z24	X25	Y25	Z25	X26	Y26	Z26	X27	Y27	Z27	X28	Y28	Z28	X29	Y29	Z29	X30	Y30	Z30	X31	Y31	Z31	X32	Y32	Z32	X33	Y33	Z33	X34	Y34	Z34	X35	Y35	Z35	X36	Y36	Z36	X37	Y37	Z37	X38	Y38	Z38	X39	Y39	Z39	X40	Y40	Z40	X41	Y41	Z41	X42	Y42	Z42	X43	Y43	Z43	

327	6.520	-449.33722	79.21172	1722.55872	-568.23230	-102.77902	1433.17981	-572.99347	253.84198	1447.25488	-575.71655	79.53408	1233.98401	-722.64081	-25.81424	1008.48218	-732.32947	219.97221	1023.84369	-924.05029	73.71040	1033.54736	-761.28290	-95.75468	843.10651	-653.69379	-39.83087	816.55774	-722.16986	-86.96892	733.06049	-665.07440	-58.64874	603.89636	-626.39374	48.13884	573.69208	-661.37256	-56.65264	557.76215	-608.35352	-11.66207	507.88916	-716.70551	-59.42130	484.76642	-756.54779	-20.11450	207.21748	-652.17419	-72.43297	157.86777	-609.81372	-81.29417	154.57024	-550.08673	-32.52399	162.35281	-597.59937	21.46596	171.31706	-710.09595	65.77499	216.54808	-671.26904	50.29912	161.48264	-789.61633	42.12538	178.76338	-779.57629	278.23621	848.21484	-657.53180	211.66367	833.49255	-717.36133	276.10904	727.44836	-688.12128	256.69876	625.81531	-621.80389	158.52194	576.98981	-668.69684	256.90268	568.79132	-612.36890	219.27478	526.06030	-715.07831	264.25928	499.29904	-765.93365	227.98238	205.63077	-662.30603	300.24408	155.31866	-625.56116	309.18701	156.93799	-556.75824	257.95633	164.84172	-592.69635	222.82996	174.78435	-706.30389	155.22859	214.17682	-674.10114	175.19754	158.17178	-793.70532	177.02708	186.41406	-528.21063	304.22928	146.38693	-517.96869	-72.75713	142.99817	-875.90369	-78.75941	141.15094	-882.63373	296.21176	144.64171	
328	6.540	-441.05212	79.24962	1712.18469	-564.72144	-102.40713	1424.85718	-568.98944	254.11612	1439.04626	-575.69775	79.66673	1225.87366	-726.49207	-25.71276	1004.15771	-735.82501	220.02719	1019.66089	-928.49805	74.20733	1029.82764	-763.73175	-95.54765	840.42499	-655.16351	-39.92450	815.45667	-722.63037	-87.03511	731.05682	-663.25812	-58.92476	603.03632	-624.66119	47.79051	573.01337	-659.22845	-57.00948	557.08606	-606.86792	-11.98462	507.16797	-715.12225	-59.67513	484.36722	-756.24188	-20.04582	207.16302	-652.16626	-72.43882	157.90063	-609.78564	-81.25015	154.59558	-550.09064	-32.50454	162.33405	-597.58490	21.46247	171.31181	-709.87946	65.78908	216.40773	-671.35327	50.34499	161.43448	-789.56287	42.22763	178.75102	-781.51611	278.55908	845.15466	-659.14386	211.53448	832.38995	-716.67279	276.50656	725.41785	-685.48688	256.77505	624.48596	-619.12714	158.58374	576.24939	-665.68280	256.96414	568.05072	-609.58911	219.09703	525.25311	-712.37653	264.41568	498.83493	-765.68848	227.89386	205.65076	-662.29462	300.12643	155.47293	-625.49091	309.05466	156.99950	-556.64838	257.92996	164.78769	-592.53784	222.62691	174.73167	-706.12512	154.99886	214.05002	-674.07190	175.21155	157.96402	-793.57257	176.97058	186.48093	-528.20532	304.19806	146.36618	-517.92426	-72.73554	143.04965	-875.90906	-78.75722	141.15857	-882.60199	296.20428	144.65038	
329	6.560	-432.84729	79.43557	1701.45093	-561.28497	-101.99797	1416.21313	-564.96448	254.34531	1430.40356	-575.76050	79.78911	1217.54602	-730.35681	-25.65598	999.54395	-739.27014	220.06334	1015.15393	-933.00287	74.61465	1025.83777	-766.09930	-95.35564	837.62292	-656.64514	-40.04099	814.41913	-722.90588	-87.03319	728.96771	-661.35944	-59.07104	602.10559	-622.80835	47.39130	571.95288	-657.04126	-57.27561	556.36615	-605.40546	-12.36705	506.36359	-713.51434	-59.88006	484.02448	-755.86945	-19.93630	207.11528	-652.18219	-72.45470	157.90804	-609.70551	-81.18524	154.69080	-550.10046	-32.50769	162.31174	-597.56055	21.46363	171.29799	-709.66272	65.81175	216.22952	-671.39856	50.41229	161.35089	-789.42181	42.36399	178.75110	-783.42603	278.64313	841.88165	-660.75439	211.20898	831.20605	-715.97101	276.53815	723.25836	-682.84833	256.56030	623.08160	-616.53723	158.39653	575.48444	-662.56891	256.79202	567.30634	-606.78406	218.48083	524.30103	-709.61011	264.32474	498.36267	-765.39246	227.73883	205.77205	-662.22766	299.94418	155.68025	-625.42340	308.90085	157.09386	-556.53809	257.86002	164.70418	-592.36450	222.38246	174.69806	-705.91461	154.65344	213.85001	-674.06885	175.16158	157.72664	-793.40240	176.81567	186.56831	-528.19812	304.17014	146.33682	-517.86646	-72.67713	143.10353	-875.90338	-78.76183	141.18190	-882.57635	296.16641	144.62784	
330	6.580	-424.71759	79.75987	1690.35291	-557.89771	-101.57182	1407.23730	-561.03229	254.40694	1421.23901	-575.84772	79.90662	1208.94653	-734.08594	-25.48469	994.68646	-742.72906	220.14636	1010.31104	-937.31348	74.86272	1021.69318	-768.31030	-95.23172	834.69849	-658.19232	-40.02341	813.41406	-722.92676	-86.94736	726.86493	-659.37238	-59.09376	601.15918	-620.76392	47.02412	570.54340	-654.80511	-57.44493	555.66467	-603.87738	-12.70471	505.46478	-711.80988	-60.02097	483.69525	-755.46515	-19.76296	207.06482	-652.19763	-72.45983	157.90840	-609.62891	-81.12100	154.79587	-550.10400	-32.53424	162.29669	-597.51807	21.47316	171.25642	-709.45331	65.89821	216.02895	-671.40320	50.52580	161.21130	-789.21704	42.52913	178.75992	-785.45642	278.46198	838.33594	-662.40283	210.86072	829.94409	-715.39795	276.32986	721.00299	-680.30194	256.08878	621.63629	-613.91937	158.06067	574.72974	-659.41132	256.49005	566.58429	-604.03290	217.52356	523.18701	-706.86182	264.00940	497.88983	-765.08618	227.50497	205.99530	-662.12317	299.71790	155.95496	-625.37701	308.70795	157.24295	-556.43658	257.73410	164.59477	-592.21106	222.08240	174.66202	-705.71521	154.17923	213.54568	-674.08179	175.01746	157.39745	-793.20148	176.52789	186.68198	-528.19604	304.14923	146.30901	-517.82086	-72.61041	143.15446	-875.89423	-78.76875	141.20056	-882.57751	296.11252	144.57513	
